<?xml version="1.0" standalone="no"?>
<!DOCTYPE svg PUBLIC "-//W3C//DTD SVG 20010904//EN"
 "http://www.w3.org/TR/2001/REC-SVG-20010904/DTD/svg10.dtd">
<svg version="1.0" xmlns="http://www.w3.org/2000/svg"
 width="300.000000pt" height="131.000000pt" viewBox="0 0 300.000000 131.000000"
 preserveAspectRatio="xMidYMid meet">
<metadata>
Created by potrace 1.10, written by Peter Selinger 2001-2011
</metadata>
<g transform="translate(0.000000,131.000000) scale(0.100000,-0.100000)"
fill="#008082" stroke="none">
<path d="M547 1140 c-165 -28 -301 -141 -347 -289 -24 -77 -28 -276 -6 -357
29 -110 116 -208 236 -267 l65 -32 1015 0 1015 0 47 22 c108 50 201 144 240
243 18 45 23 80 26 191 3 132 3 138 -27 216 -56 144 -186 248 -341 273 -78 12
-1850 12 -1923 0z m1512 -237 c14 -28 23 -255 12 -287 -15 -38 -40 -44 -64
-15 -18 22 -19 36 -15 159 2 75 8 141 12 148 11 18 44 15 55 -5z m116 0 c13
-35 24 -242 14 -277 -15 -53 -63 -59 -75 -9 -8 32 0 276 10 291 11 18 43 14
51 -5z m-577 -55 c2 -29 8 -38 21 -38 11 0 29 -9 42 -19 20 -16 22 -23 13 -38
-6 -10 -24 -20 -40 -23 -16 -3 -29 -11 -28 -18 1 -6 2 -21 3 -31 1 -15 10 -21
39 -23 30 -2 38 -7 40 -25 3 -17 -5 -27 -31 -39 -32 -15 -37 -15 -69 0 -41 20
-58 51 -58 105 0 22 -6 44 -15 51 -20 17 -19 33 5 55 11 10 20 26 20 36 0 33
12 50 34 47 16 -2 22 -11 24 -40z m-957 -47 c52 -53 33 -113 -42 -128 l-34 -7
33 -8 c41 -11 50 -32 26 -59 -29 -32 -99 -21 -136 20 -44 49 -37 143 13 190
36 33 103 29 140 -8z m518 3 c57 -48 36 -115 -40 -131 l-34 -7 33 -8 c40 -11
50 -32 27 -58 -12 -14 -31 -20 -58 -20 -31 0 -46 7 -73 34 -29 29 -34 41 -34
79 0 89 37 137 106 137 31 0 51 -7 73 -26z m734 5 c30 -14 40 -35 57 -121 11
-55 11 -70 0 -82 -16 -20 -39 -20 -61 0 -13 12 -22 13 -38 5 -37 -20 -88 -13
-110 15 -26 33 -26 64 -1 113 33 66 98 95 153 70z m-1114 -49 c17 -27 32 -50
35 -50 2 0 16 18 31 41 38 54 61 66 86 43 10 -9 19 -22 19 -28 -1 -6 -25 -49
-54 -96 -58 -93 -86 -110 -124 -72 -24 24 -75 173 -66 195 12 32 42 18 73 -33z
m1655 44 c34 -13 19 -74 -56 -222 -70 -140 -91 -168 -122 -156 -25 10 -26 32
-5 90 23 61 22 76 -12 173 -17 46 -20 68 -12 80 18 29 37 17 64 -38 l27 -54
22 44 c23 45 58 89 71 89 4 0 14 -3 23 -6z m-1146 -20 c9 -16 11 -16 33 0 70
49 149 -15 149 -121 0 -36 -23 -73 -45 -73 -22 0 -43 35 -47 75 -2 22 -7 40
-13 39 -5 0 -23 -27 -40 -60 -33 -65 -62 -80 -88 -44 -16 23 -12 165 5 188 14
17 35 15 46 -4z m1266 -137 c15 -24 -4 -52 -35 -52 -31 0 -40 42 -13 62 21 16
34 13 48 -10z"/>
<path d="M557 763 c-14 -13 -6 -20 18 -15 14 2 22 8 19 13 -6 11 -28 12 -37 2z"/>
<path d="M1077 763 c-14 -13 -6 -20 18 -15 14 2 22 8 19 13 -6 11 -28 12 -37
2z"/>
<path d="M1821 724 c-11 -15 -21 -33 -21 -41 0 -23 39 4 46 33 9 36 0 39 -25
8z"/>
</g>
</svg>
